<svg id="Layer_1" data-name="Layer 1" xmlns="http://www.w3.org/2000/svg" viewBox="0 0 248 246.25"><defs><style>.cls-1{fill:#7dbce7;}.cls-2,.cls-4{fill:none;stroke-linecap:round;stroke-miterlimit:10;stroke-width:3px;}.cls-2{stroke:#fff;}.cls-3{fill:#fff;}.cls-4{stroke:#7dbce7;}</style></defs><title>chatboticon</title><path class="cls-1" d="M269,119.88a112,112,0,0,1,83.8,186.29l21.95,21.95H326.32A112,112,0,1,1,269,119.88Z" transform="translate(-133 -119.88)"/><line class="cls-2" x1="198.5" y1="50.25" x2="98.5" y2="50.25"/><line class="cls-2" x1="198" y1="134.75" x2="98" y2="134.75"/><line class="cls-2" x1="198" y1="77.75" x2="64" y2="77.75"/><line class="cls-2" x1="198" y1="105.75" x2="77" y2="105.75"/><path class="cls-3" d="M245,142.12a112,112,0,0,0-83.8,186.3l-21.95,21.95h48.43A112,112,0,1,0,245,142.12Z" transform="translate(-133 -119.88)"/><line class="cls-4" x1="58" y1="92.25" x2="158" y2="92.25"/><line class="cls-4" x1="58.5" y1="176.75" x2="158.5" y2="176.75"/><line class="cls-4" x1="58.5" y1="119.75" x2="192.5" y2="119.75"/><line class="cls-4" x1="58.5" y1="147.75" x2="179.5" y2="147.75"/></svg>